<?xml version="1.0" standalone="no"?>
<!DOCTYPE svg PUBLIC "-//W3C//DTD SVG 20010904//EN"
 "http://www.w3.org/TR/2001/REC-SVG-20010904/DTD/svg10.dtd">
<svg version="1.0" xmlns="http://www.w3.org/2000/svg"
 width="512.000000pt" height="512.000000pt" viewBox="0 0 512.000000 512.000000"
 preserveAspectRatio="xMidYMid meet">

<g transform="translate(0.000000,512.000000) scale(0.100000,-0.100000)"
fill="#000000" stroke="none">
<path d="M2560 5105 c-23 -27 5 -45 72 -45 62 0 82 16 58 45 -17 21 -113 20
-130 0z"/>
<path d="M2276 5097 c-11 -8 -15 -19 -10 -30 5 -13 18 -17 64 -17 60 0 88 16
76 45 -7 19 -104 21 -130 2z"/>
<path d="M2844 5086 c-10 -27 16 -44 78 -51 49 -6 59 -5 64 10 10 26 -16 44
-78 51 -49 6 -59 4 -64 -10z"/>
<path d="M2035 5066 c-44 -10 -50 -14 -50 -36 0 -23 3 -25 42 -22 60 3 93 18
93 41 0 15 -23 36 -33 30 -1 0 -24 -6 -52 -13z"/>
<path d="M3124 5035 c-11 -29 4 -42 64 -55 65 -13 82 -9 82 20 0 14 -13 23
-52 35 -65 19 -87 19 -94 0z"/>
<path d="M1755 4991 c-41 -15 -50 -22 -50 -42 0 -20 5 -24 30 -23 17 1 47 9
68 18 31 12 38 20 35 38 -4 29 -21 31 -83 9z"/>
<path d="M3410 4955 c-20 -24 -6 -40 52 -62 60 -23 78 -21 78 12 0 18 -11 26
-56 44 -66 25 -59 24 -74 6z"/>
<path d="M1488 4885 c-57 -30 -65 -42 -44 -63 14 -14 20 -14 66 8 59 28 73 41
64 64 -8 22 -30 20 -86 -9z"/>
<path d="M3670 4845 c-19 -23 -4 -43 54 -72 46 -22 57 -24 70 -14 24 20 20 28
-24 56 -62 39 -86 46 -100 30z"/>
<path d="M1232 4749 c-41 -24 -52 -36 -50 -53 5 -32 30 -30 88 5 39 24 50 36
48 53 -4 31 -27 30 -86 -5z"/>
<path d="M3927 4703 c-18 -17 -3 -45 38 -73 83 -57 119 -15 38 44 -48 36 -64
42 -76 29z"/>
<path d="M1004 4592 c-58 -42 -69 -59 -54 -77 19 -22 30 -19 82 26 41 34 46
43 38 60 -14 25 -20 24 -66 -9z"/>
<path d="M4153 4513 c-8 -20 67 -93 97 -93 41 0 36 31 -11 72 -47 41 -76 48
-86 21z"/>
<path d="M3095 4479 c-17 -5 -49 -24 -71 -43 -29 -25 -50 -35 -70 -33 -34 2
-46 -29 -19 -49 13 -10 16 -21 10 -52 -14 -85 34 -183 112 -229 104 -61 253
-18 309 89 7 15 24 28 36 30 30 4 37 44 10 52 -14 5 -21 19 -25 52 -15 135
-156 223 -292 183z m162 -75 c52 -39 68 -71 68 -137 0 -77 -27 -120 -93 -149
-62 -28 -121 -18 -173 29 -117 105 -38 290 119 280 32 -2 63 -11 79 -23z"/>
<path d="M2634 4432 c-29 -29 11 -52 91 -52 39 0 63 23 46 44 -16 19 -120 25
-137 8z"/>
<path d="M776 4391 c-32 -33 -47 -55 -43 -65 11 -28 41 -17 87 29 36 37 43 49
34 62 -18 28 -28 25 -78 -26z"/>
<path d="M2330 4425 c-7 -8 -9 -22 -6 -31 5 -13 18 -16 71 -12 68 4 92 16 82
42 -9 22 -129 23 -147 1z"/>
<path d="M2083 4387 c-50 -14 -66 -28 -57 -50 7 -20 23 -21 89 -4 43 11 50 17
50 38 0 29 -21 33 -82 16z"/>
<path d="M4356 4324 c-9 -22 85 -119 108 -111 27 11 18 39 -26 84 -44 45 -72
54 -82 27z"/>
<path d="M1793 4285 c-53 -24 -65 -43 -39 -64 11 -9 26 -6 69 13 62 27 74 40
57 61 -16 19 -25 18 -87 -10z"/>
<path d="M289 4216 c-100 -41 -158 -96 -201 -193 -34 -75 -32 -198 5 -279 16
-34 48 -81 73 -105 31 -31 44 -51 44 -71 0 -35 24 -46 49 -24 15 14 23 15 47
5 16 -7 65 -12 109 -12 67 -1 90 4 140 27 78 35 146 103 182 180 24 52 28 74
28 146 0 71 -4 94 -26 141 -15 31 -43 75 -63 97 -22 24 -33 43 -26 47 16 10
12 42 -6 49 -10 4 -25 -1 -35 -10 -16 -15 -22 -14 -74 5 -77 29 -172 28 -246
-3z m247 -64 c92 -47 146 -116 165 -214 9 -44 8 -66 -5 -118 -25 -96 -71 -152
-161 -196 -120 -58 -280 -16 -357 95 -118 168 -40 386 162 452 43 14 152 4
196 -19z"/>
<path d="M1533 4145 c-33 -22 -53 -42 -53 -54 0 -35 31 -33 87 4 42 28 54 41
51 58 -5 32 -27 30 -85 -8z"/>
<path d="M3563 4143 c-27 -10 -11 -43 37 -78 52 -38 82 -42 88 -12 5 27 -97
100 -125 90z"/>
<path d="M4561 4111 c-8 -5 -12 -18 -9 -29 5 -16 -4 -27 -33 -48 -147 -102
-163 -340 -32 -471 86 -86 223 -116 332 -74 50 19 55 19 66 4 19 -25 47 -9 44
24 -2 19 8 44 33 78 37 51 68 137 68 191 0 48 -30 135 -62 182 -63 92 -169
139 -289 129 -52 -4 -70 -2 -80 9 -13 16 -19 17 -38 5z m225 -86 c27 -8 68
-30 91 -50 116 -99 115 -285 -2 -380 -133 -109 -314 -73 -389 77 -54 108 -23
245 71 312 77 55 143 67 229 41z"/>
<path d="M2533 3998 c-5 -7 -61 -102 -123 -210 -94 -165 -111 -200 -100 -213
19 -22 471 -22 490 0 11 13 -7 49 -106 223 -66 114 -127 208 -135 210 -9 2
-20 -3 -26 -10z m106 -233 l81 -140 -79 -3 c-44 -1 -119 -1 -166 0 l-85 3 82
142 c45 78 83 141 84 140 1 -1 39 -65 83 -142z"/>
<path d="M1287 3951 c-44 -42 -49 -51 -38 -65 7 -9 19 -16 25 -16 19 1 96 80
96 99 0 39 -31 32 -83 -18z"/>
<path d="M3796 3933 c-9 -23 71 -105 99 -101 36 5 29 37 -16 79 -45 42 -73 49
-83 22z"/>
<path d="M1099 3753 c-59 -63 -69 -103 -29 -103 24 0 93 84 88 107 -5 28 -31
26 -59 -4z"/>
<path d="M4007 3723 c-13 -12 -7 -35 20 -71 35 -49 52 -62 69 -55 23 9 16 41
-18 88 -31 41 -55 54 -71 38z"/>
<path d="M3319 3541 c-114 -32 -212 -61 -218 -65 -28 -18 -1 -53 160 -206 136
-130 174 -162 187 -154 17 11 134 448 125 470 -8 21 -33 17 -254 -45z m151
-143 c-17 -68 -36 -141 -41 -162 l-11 -39 -118 118 c-66 66 -118 121 -116 123
6 5 311 89 314 86 2 -1 -10 -58 -28 -126z"/>
<path d="M1520 3553 c1 -44 116 -444 131 -453 7 -5 20 -5 29 0 9 5 87 83 174
173 111 117 154 169 150 181 -3 9 -8 16 -10 16 -2 0 -99 25 -216 55 -117 30
-223 55 -235 55 -18 0 -23 -6 -23 -27z m258 -90 l143 -37 -118 -118 c-64 -65
-120 -114 -124 -110 -4 4 -23 68 -43 142 -20 74 -39 144 -42 154 -5 16 -3 18
17 12 13 -3 88 -23 167 -43z"/>
<path d="M928 3508 c-39 -59 -49 -89 -37 -104 6 -8 17 -14 24 -14 18 0 78 107
71 125 -8 22 -42 18 -58 -7z"/>
<path d="M4172 3463 c-7 -12 -3 -32 16 -70 28 -57 48 -71 70 -50 12 12 9 23
-17 76 -32 62 -52 75 -69 44z"/>
<path d="M2455 3419 c-133 -17 -278 -73 -394 -151 -71 -48 -192 -177 -237
-254 -89 -150 -127 -288 -126 -459 0 -234 84 -437 252 -605 340 -340 881 -339
1222 2 333 333 332 884 -2 1218 -186 186 -462 282 -715 249z m538 -182 c376
-241 482 -752 233 -1125 -77 -116 -212 -231 -330 -282 l-44 -18 -77 33 c-152
66 -315 194 -394 308 -85 124 -121 244 -121 402 0 135 15 200 76 323 36 74 62
109 127 176 89 91 220 182 325 226 l65 28 43 -19 c24 -10 68 -34 97 -52z"/>
<path d="M134 3374 c-25 -59 -27 -89 -9 -104 22 -18 37 -1 59 64 12 37 13 53
5 63 -19 23 -39 14 -55 -23z"/>
<path d="M4957 3343 c-11 -11 -8 -47 9 -97 13 -39 20 -47 38 -44 18 3 21 9 19
40 -4 72 -41 127 -66 101z"/>
<path d="M793 3223 c-9 -21 -16 -54 -17 -73 -1 -28 3 -35 18 -35 15 0 26 15
43 57 25 62 22 88 -9 88 -13 0 -24 -12 -35 -37z"/>
<path d="M4297 3204 c-11 -12 -8 -47 9 -98 18 -52 38 -67 60 -44 13 13 12 22
-8 79 -21 59 -43 81 -61 63z"/>
<path d="M72 3128 c-13 -17 -32 -108 -25 -125 3 -8 15 -13 27 -11 28 4 56 109
36 133 -15 18 -24 19 -38 3z"/>
<path d="M5025 3049 c-10 -16 4 -114 19 -135 9 -11 19 -15 31 -10 15 5 17 15
12 65 -4 32 -9 65 -13 74 -7 19 -39 23 -49 6z"/>
<path d="M715 2958 c-14 -42 -21 -118 -12 -127 31 -31 55 1 59 80 3 49 1 54
-20 57 -12 2 -24 -3 -27 -10z"/>
<path d="M4366 2901 c-9 -14 11 -132 24 -145 7 -7 16 -7 28 0 18 12 19 61 3
121 -8 29 -43 44 -55 24z"/>
<path d="M15 2827 c-11 -58 -2 -111 19 -115 27 -6 36 15 36 86 0 59 -1 62 -25
62 -19 0 -25 -6 -30 -33z"/>
<path d="M1310 2695 c-136 -79 -196 -120 -198 -133 -3 -16 34 -42 198 -137
111 -64 209 -115 218 -113 15 3 17 26 17 248 0 238 -1 245 -20 247 -11 1 -108
-49 -215 -112z m180 -136 c0 -88 -4 -159 -8 -157 -24 9 -272 154 -272 158 0 6
261 158 273 159 4 1 7 -71 7 -160z"/>
<path d="M3564 2797 c-2 -7 -3 -118 -2 -247 3 -227 4 -235 23 -237 11 -1 108
49 215 111 160 94 195 118 195 136 0 18 -35 42 -195 135 -107 63 -203 114
-213 114 -10 1 -20 -5 -23 -12z m205 -157 c72 -41 131 -77 131 -80 0 -5 -250
-151 -271 -158 -5 -2 -9 65 -9 158 0 93 4 160 9 158 5 -1 68 -37 140 -78z"/>
<path d="M5073 2753 c-20 -7 -18 -142 2 -149 26 -10 45 16 45 60 0 73 -15 100
-47 89z"/>
<path d="M681 2666 c-7 -9 -11 -39 -9 -78 3 -60 4 -63 28 -63 24 0 25 2 25 75
0 60 -3 75 -16 78 -9 1 -21 -4 -28 -12z"/>
<path d="M4394 2587 c-3 -8 -4 -41 -2 -73 3 -52 6 -59 25 -62 27 -4 36 22 31
94 -3 42 -6 49 -26 52 -12 2 -24 -3 -28 -11z"/>
<path d="M12 2568 c-7 -7 -12 -38 -12 -70 0 -45 4 -59 18 -67 29 -15 42 6 42
69 0 49 -11 80 -30 80 -3 0 -11 -5 -18 -12z"/>
<path d="M5063 2434 c-3 -9 -6 -41 -7 -72 -1 -54 0 -57 24 -57 23 0 26 5 32
55 4 30 5 63 2 73 -7 21 -43 23 -51 1z"/>
<path d="M697 2363 c-9 -8 -7 -80 2 -113 8 -28 39 -39 52 -19 9 15 1 95 -13
122 -9 17 -29 23 -41 10z"/>
<path d="M4370 2276 c-5 -13 -10 -46 -12 -73 -3 -45 -2 -48 22 -48 23 0 26 6
37 60 8 42 8 63 1 72 -16 20 -38 15 -48 -11z"/>
<path d="M23 2274 c-9 -24 6 -107 22 -123 11 -12 17 -12 30 -1 12 10 14 24 9
64 -4 28 -11 57 -17 64 -13 17 -36 15 -44 -4z"/>
<path d="M5023 2123 c-3 -15 -7 -48 -7 -73 -1 -34 3 -45 16 -48 23 -5 38 29
41 90 2 48 0 53 -20 56 -17 3 -24 -3 -30 -25z"/>
<path d="M745 2068 c-7 -19 30 -129 46 -139 8 -4 21 -4 29 1 15 9 8 50 -19
123 -11 28 -48 38 -56 15z"/>
<path d="M3424 2015 c-11 -7 -88 -85 -172 -173 -98 -104 -150 -165 -147 -175
4 -9 83 -34 223 -71 228 -59 257 -64 264 -43 4 10 -45 201 -107 413 -16 57
-33 70 -61 49z m55 -249 c22 -82 39 -151 38 -152 -4 -4 -309 74 -315 81 -4 3
45 57 108 120 63 63 117 111 121 107 4 -4 25 -74 48 -156z"/>
<path d="M73 1994 c-10 -27 20 -118 41 -122 31 -6 38 11 25 64 -7 27 -16 55
-22 62 -13 17 -36 15 -44 -4z"/>
<path d="M1653 1998 c-14 -22 -121 -451 -116 -465 8 -20 28 -17 240 42 231 64
243 69 243 93 0 19 -329 342 -348 342 -6 0 -14 -6 -19 -12z m273 -316 c-6 -6
-311 -90 -314 -86 -3 2 15 76 69 288 l11 39 118 -118 c66 -66 118 -121 116
-123z"/>
<path d="M4305 2000 c-14 -23 -42 -116 -38 -127 3 -7 13 -13 23 -13 9 0 22 6
27 13 17 20 45 116 38 127 -8 13 -42 13 -50 0z"/>
<path d="M4954 1834 c-9 -21 -16 -55 -17 -78 -2 -35 1 -41 18 -41 26 0 72 120
54 141 -20 24 -39 16 -55 -22z"/>
<path d="M853 1784 c-10 -27 47 -129 72 -129 30 0 29 33 -3 90 -28 52 -57 69
-69 39z"/>
<path d="M157 1733 c-23 -22 20 -133 51 -133 29 0 33 23 15 72 -25 64 -45 83
-66 61z"/>
<path d="M4161 1675 c-35 -63 -36 -68 -16 -85 20 -17 40 0 71 63 27 53 26 77
-5 77 -13 0 -29 -18 -50 -55z"/>
<path d="M4647 1576 c-54 -15 -111 -57 -145 -106 -69 -103 -47 -254 50 -335
22 -18 33 -37 33 -54 0 -31 29 -40 55 -16 13 12 27 15 53 10 88 -17 211 55
257 149 36 76 23 203 -28 259 -9 10 -16 35 -17 55 0 28 -5 38 -19 40 -10 2
-23 -3 -27 -11 -7 -12 -16 -12 -61 4 -62 21 -86 22 -151 5z m125 -56 c81 -23
138 -102 138 -190 0 -93 -57 -165 -148 -190 -52 -13 -92 -6 -149 26 -55 32
-84 80 -90 152 -8 93 40 164 133 197 48 17 68 18 116 5z"/>
<path d="M2310 1545 c-11 -13 7 -49 107 -223 89 -156 124 -207 138 -207 14 0
49 51 138 207 100 174 118 210 107 223 -10 13 -49 15 -245 15 -196 0 -235 -2
-245 -15z m407 -52 c-21 -41 -161 -282 -163 -280 -4 5 -136 232 -150 258 l-15
29 166 0 c92 0 164 -3 162 -7z"/>
<path d="M1006 1514 c-9 -22 54 -108 82 -112 38 -6 37 24 -3 78 -37 51 -68 64
-79 34z"/>
<path d="M263 1465 c-8 -22 42 -125 61 -125 7 0 19 7 26 15 9 11 6 25 -17 67
-29 54 -58 72 -70 43z"/>
<path d="M4019 1453 c-70 -76 -81 -113 -35 -113 30 1 103 97 89 118 -15 25
-27 24 -54 -5z"/>
<path d="M1193 1284 c-8 -22 89 -119 111 -111 27 11 18 39 -26 84 -44 45 -74
54 -85 27z"/>
<path d="M506 1230 c-42 -17 -50 -17 -63 -4 -18 18 -27 18 -44 -2 -10 -12 -10
-20 -1 -35 11 -17 8 -25 -17 -57 -113 -142 -60 -357 107 -439 75 -37 172 -39
249 -4 43 19 56 21 68 11 8 -7 22 -10 30 -6 17 6 20 41 5 51 -5 3 4 27 21 52
52 83 62 157 33 253 -21 71 -107 159 -178 183 -65 22 -149 21 -210 -3z m209
-64 c91 -42 142 -131 132 -230 -10 -100 -72 -175 -166 -203 -101 -29 -202 8
-261 95 -130 194 82 437 295 338z"/>
<path d="M3123 1231 c-100 -34 -180 -108 -225 -207 -19 -41 -23 -67 -24 -157
0 -77 -4 -111 -13 -116 -22 -14 -8 -46 21 -49 19 -2 37 -18 62 -52 70 -97 201
-157 326 -148 134 10 259 97 317 223 24 52 28 73 29 160 1 55 4 108 9 118 11
25 -2 49 -24 45 -13 -2 -29 12 -53 46 -88 128 -276 189 -425 137z m248 -70
c72 -34 116 -77 151 -148 78 -158 17 -338 -140 -415 -58 -29 -77 -33 -142 -33
-94 1 -170 34 -229 102 -185 209 -26 538 250 519 37 -3 86 -14 110 -25z"/>
<path d="M3782 1199 c-45 -43 -51 -72 -17 -77 25 -3 107 74 103 97 -6 31 -42
22 -86 -20z"/>
<path d="M1417 1086 c-7 -18 8 -36 65 -76 40 -27 50 -31 63 -20 25 21 18 36
-35 74 -53 38 -84 45 -93 22z"/>
<path d="M4436 906 c-39 -46 -45 -73 -20 -83 16 -6 53 23 86 70 16 22 17 31 8
42 -20 24 -37 18 -74 -29z"/>
<path d="M1687 933 c-4 -3 -7 -15 -7 -25 0 -22 99 -74 124 -65 33 13 17 42
-39 70 -59 29 -68 31 -78 20z"/>
<path d="M1964 805 c-10 -25 1 -38 47 -51 56 -17 86 -17 92 -1 9 23 -7 36 -59
52 -61 19 -73 19 -80 0z"/>
<path d="M2243 734 c-10 -27 19 -42 87 -46 63 -3 65 -2 65 22 0 19 -6 26 -30
31 -60 13 -115 10 -122 -7z"/>
<path d="M4236 702 c-30 -24 -46 -45 -46 -59 0 -36 40 -29 83 15 67 69 37 104
-37 44z"/>
<path d="M2554 715 c-11 -28 16 -45 70 -45 58 0 93 18 83 44 -9 23 -145 24
-153 1z"/>
<path d="M943 604 c-7 -18 27 -56 75 -86 29 -18 35 -19 48 -6 20 20 11 37 -41
76 -49 35 -72 40 -82 16z"/>
<path d="M3998 514 c-51 -38 -53 -41 -39 -63 13 -20 50 -7 96 32 35 30 38 36
26 51 -19 23 -30 20 -83 -20z"/>
<path d="M1191 436 c-18 -21 -5 -39 50 -69 53 -31 79 -30 79 2 0 13 -18 30
-54 50 -62 36 -60 35 -75 17z"/>
<path d="M3755 362 c-34 -18 -50 -33 -50 -47 0 -30 34 -30 89 1 36 20 46 31
44 48 -4 30 -26 30 -83 -2z"/>
<path d="M1436 294 c-9 -23 5 -36 63 -63 54 -26 81 -23 81 8 0 14 -16 27 -56
45 -66 30 -80 32 -88 10z"/>
<path d="M3490 239 c-48 -22 -61 -35 -53 -56 7 -17 34 -17 85 3 54 21 70 36
62 57 -8 22 -38 20 -94 -4z"/>
<path d="M1711 187 c-20 -25 -2 -44 59 -62 61 -18 90 -16 90 8 0 20 -17 31
-69 46 -23 7 -49 15 -55 17 -7 3 -18 -1 -25 -9z"/>
<path d="M3208 144 c-40 -12 -48 -19 -48 -39 0 -29 21 -32 87 -12 51 15 68 30
60 51 -8 19 -37 19 -99 0z"/>
<path d="M2005 104 c-24 -24 -6 -42 51 -54 64 -13 84 -9 84 19 0 20 -9 24 -98
44 -12 3 -29 -1 -37 -9z"/>
<path d="M2900 81 c-26 -7 -39 -36 -23 -52 12 -12 112 1 128 18 24 24 7 43
-39 42 -22 -1 -52 -4 -66 -8z"/>
<path d="M2290 54 c-21 -24 7 -42 65 -44 73 -3 75 -2 75 20 0 37 -113 57 -140
24z"/>
<path d="M2584 45 c-13 -32 3 -45 58 -45 61 0 81 10 76 36 -3 16 -14 20 -66
22 -49 2 -64 0 -68 -13z"/>
</g>
</svg>
